<svg width="81" height="34" viewBox="0 0 81 34" fill="none" xmlns="http://www.w3.org/2000/svg">
<path d="M4.42571 0V20.3593H0V0H4.42571ZM4.42571 20.3593C4.42571 22.2776 5.1078 23.9223 6.47198 25.2935C7.83617 26.6664 9.48617 27.352 11.4185 27.352V31.7777C9.3231 31.7777 7.41359 31.2622 5.68644 30.2295C3.9593 29.1967 2.58108 27.8167 1.5483 26.0913C0.515517 24.3659 0 22.4547 0 20.3593H4.42571Z" fill="#EB5328"/>
<path d="M45.1881 23.8398C46 25.5038 47.2642 26.6664 48.9844 27.3292C50.7027 27.9902 52.4843 27.9937 54.3289 27.3397L56.0104 31.1254C54.5638 31.6567 53.119 31.9232 51.6724 31.9232C49.4297 31.9232 47.3466 31.3463 45.4214 30.1943C43.4961 29.0423 42.053 27.4414 41.0956 25.3969C39.9453 22.6966 39.9523 20.0015 41.1184 17.3152C42.3581 14.6553 44.4166 12.7528 47.2923 11.606C48.6652 11.115 49.9558 10.8626 51.1657 10.8485C52.3755 10.8345 53.3978 10.9204 54.2307 11.1045C55.0636 11.2886 55.6071 11.4359 55.8579 11.5446L54.2429 15.3496C54.1833 15.3216 53.9028 15.2479 53.4013 15.1252C52.8998 15.0024 52.2581 14.9376 51.476 14.9306C50.694 14.9235 49.8681 15.0778 48.9966 15.3917C47.2257 16.0878 45.9649 17.2539 45.2127 18.8898C44.4903 20.5398 44.4833 22.1916 45.1899 23.8416L45.1881 23.8398Z" fill="white"/>
<path d="M26.5735 10.8959C28.5619 10.8959 30.3767 11.3833 32.0232 12.3547C33.668 13.3279 34.969 14.6255 35.9282 16.2492C36.8873 17.8728 37.38 19.6929 37.4081 21.7094V23.7259H37.0714V23.7469H26.4052V19.5474H32.8509C32.3757 18.2323 31.5726 17.1609 30.4469 16.3351C29.3194 15.5092 28.0289 15.0954 26.5735 15.0954C24.7534 15.0954 23.1929 15.7424 21.8901 17.0382C20.589 18.334 19.9367 19.8981 19.9367 21.7322C19.9367 23.0069 20.2751 24.1397 20.9555 25.1339C21.634 26.1281 22.481 26.9084 23.4962 27.4747C24.5115 28.0411 25.5565 28.3392 26.6349 28.3672L26.5297 32.5667C23.8136 32.4686 21.378 31.4603 19.2231 29.542C16.8997 27.3169 15.7372 24.713 15.7372 21.7304C15.7372 19.742 16.2264 17.9272 17.2066 16.2807C18.1868 14.636 19.4948 13.3279 21.1326 12.3547C22.7703 11.3816 24.5834 10.8959 26.5718 10.8959H26.5735Z" fill="#EB5328"/>
<path d="M79.3558 15.9003C78.3371 14.196 76.9659 12.8353 75.2387 11.8166C73.5133 10.7978 71.6091 10.2893 69.5295 10.2893C67.4499 10.2893 65.5193 10.8048 63.7869 11.8376C62.0528 12.8704 60.6746 14.2503 59.6488 15.9757C58.623 17.7011 58.111 19.6124 58.111 21.7078C58.111 23.8031 58.623 25.7354 59.6488 27.4608C60.6746 29.1862 62.0545 30.5627 63.7869 31.5884C65.5211 32.6142 67.4341 33.1262 69.5295 33.1262C70.28 33.1262 71.0094 33.0491 71.7195 32.9123V28.3656C71.0357 28.5865 70.3063 28.7005 69.5295 28.7005C67.5972 28.7005 65.9472 28.0184 64.583 26.6542C63.2188 25.2901 62.5367 23.6401 62.5367 21.7078C62.5367 19.7755 63.2188 18.1448 64.583 16.7736C65.9472 15.4006 67.5972 14.715 69.5295 14.715C71.4618 14.715 73.1118 15.4006 74.476 16.7736C75.7647 18.0694 76.4363 19.6106 76.5082 21.3921H76.5187V21.6166C76.5187 21.6464 76.5222 21.6762 76.5222 21.7078C76.5222 21.7393 76.5187 21.7674 76.5187 21.7989V30.7398C76.5187 30.7398 76.5222 30.738 76.5222 30.7363V33.1701H80.9479V21.6183C80.9041 19.5089 80.3728 17.6012 79.3541 15.8968L79.3558 15.9003Z" fill="white"/>
</svg>
